<svg width="371" height="371" viewBox="0 0 371 371" fill="none" xmlns="http://www.w3.org/2000/svg">
<g clip-path="url(#clip0_1373_9455)">
<path d="M195.873 67.1134L100.068 16.984L72.1716 120.83L80.1145 239.792L120.448 314.385C120.56 314.532 226.956 346.014 226.956 346.014L279.755 292.085L301.818 231.26L195.872 67.119L195.873 67.1134Z" fill="#18E9DA"/>
<path d="M226.956 346.014C226.956 346.014 120.56 314.532 120.448 314.386C120.336 314.239 141.986 282.497 141.986 282.497L226.955 346.02L226.956 346.014Z" fill="#18E9DA"/>
<path d="M279.755 292.079L241.195 236.521L226.955 346.014L279.755 292.079Z" fill="#17D7D8"/>
<path d="M301.817 231.26L241.195 236.521L279.755 292.079L301.817 231.26Z" fill="#18E9DA"/>
<path d="M141.986 282.491L241.195 236.521L226.955 346.014L141.986 282.491Z" fill="#15C8D1"/>
<path d="M301.817 231.261L195.872 67.1138L173.336 69.7516L241.196 236.521L301.817 231.261Z" fill="#3CF7DC"/>
<path d="M95.5031 93.3451L173.336 69.7515L241.195 236.521L125.482 155.789L95.5031 93.3451Z" fill="#18E9DA"/>
<path d="M80.1136 239.792L120.447 314.385L141.986 282.491L125.482 155.789L95.503 93.3446L80.1136 239.792Z" fill="#3CF7DC"/>
<path d="M100.068 16.984L72.1716 120.83L80.1145 239.792L95.5039 93.3447L100.068 16.984Z" fill="#A4FFEE"/>
<path d="M173.337 69.7511L95.5039 93.3446L100.068 16.9839L173.337 69.7511Z" fill="#3CF7DC"/>
<path d="M195.873 67.1133L173.337 69.7511L100.068 16.9839L195.873 67.1133Z" fill="#4DFFE1"/>
<path d="M241.195 236.521L169.491 225.099L141.986 282.491L241.195 236.521Z" fill="#17F1D8"/>
<path d="M125.482 155.789L241.196 236.52L169.491 225.099L125.482 155.789Z" fill="#4DFFE1"/>
<path d="M141.986 282.491L125.482 155.789L169.491 225.099L141.986 282.491Z" fill="#18E9DA"/>
</g>
<defs>
<clipPath id="clip0_1373_9455">
<rect width="320" height="320" fill="white" transform="translate(55.5674) rotate(10)"/>
</clipPath>
</defs>
</svg>
